<svg width="168" height="43" viewBox="0 0 180 43" fill="none" xmlns="http://www.w3.org/2000/svg">
  <g fill="#5044E5">
    <path d="M8.63 8L15.86 14.18C16.29 14.54 16.54 15.08 16.54 15.65V20.31L9.31 14.13C8.88 13.76 8.63 13.22 8.63 12.65V8Z"/>
    <path d="M8.63 36L15.86 29.82C16.29 29.45 16.54 28.91 16.54 28.34V23.69L9.31 29.87C8.88 30.23 8.63 30.77 8.63 31.34V36Z"/>
    <path d="M0 14.51L7.13 20.57C7.48 20.87 7.91 21.03 8.37 21.03H14.12L7 14.97C6.66 14.67 6.22 14.51 5.77 14.51H0Z"/>
    <path d="M0 29.48L7.09 23.42C7.43 23.12 7.87 22.96 8.33 22.96H14.14L7 29.02C6.66 29.32 6.22 29.48 5.77 29.48H0Z"/>
    <path d="M26.37 8L19.13 14.18C18.7 14.54 18.46 15.08 18.46 15.65V20.31L25.69 14.13C26.12 13.76 26.37 13.22 26.37 12.65V8Z"/>
    <path d="M26.37 36L19.13 29.82C18.7 29.45 18.46 28.91 18.46 28.34V23.69L25.69 29.87C26.12 30.23 26.37 30.77 26.37 31.34V36Z"/>
    <path d="M35 14.51L27.86 20.57C27.52 20.87 27.08 21.03 26.63 21.03H20.87L27.99 14.97C28.33 14.67 28.77 14.51 29.23 14.51H35Z"/>
    <path d="M35 29.48L27.9 23.42C27.56 23.12 27.12 22.96 26.66 22.96H20.85L27.99 29.02C28.33 29.32 28.77 29.48 29.22 29.48H35Z"/>
  </g>
  
  <text x="45" y="31" font-family="Iosevka Charon Mono,monospace" font-weight="bold" font-size="26" fill="#5044E5">Rapid.ai</text>
</svg>
